<svg width="31" height="31" viewBox="0 0 31 31" fill="none" xmlns="http://www.w3.org/2000/svg">
    <path d="M29.481 29.8749V6.23057C29.4809 5.97719 29.4012 5.73024 29.253 5.52466C29.1049 5.31908 28.8959 5.16526 28.6556 5.08496L16.5881 1.06246C16.4066 1.00165 16.2133 0.984928 16.0241 1.01367C15.8349 1.04242 15.6553 1.11581 15.5001 1.22777C15.3449 1.33973 15.2186 1.48703 15.1316 1.6575C15.0447 1.82797 14.9995 2.0167 15 2.20807V29.8749" stroke="currentColor" stroke-width="1.6" stroke-linecap="round" stroke-linejoin="round"/>
    <path d="M24.6523 22.2549V23.4616" stroke="currentColor" stroke-width="1.6" stroke-linecap="round" stroke-linejoin="round"/>
    <path d="M24.6523 16.2212V17.4279" stroke="currentColor" stroke-width="1.6" stroke-linecap="round" stroke-linejoin="round"/>
    <path d="M24.6523 10.1875V11.3943" stroke="currentColor" stroke-width="1.6" stroke-linecap="round" stroke-linejoin="round"/>
    <path d="M19.8281 22.2549V23.4616" stroke="currentColor" stroke-width="1.6" stroke-linecap="round" stroke-linejoin="round"/>
    <path d="M19.8281 16.2212V17.4279" stroke="currentColor" stroke-width="1.6" stroke-linecap="round" stroke-linejoin="round"/>
    <path d="M19.8281 10.1875V11.3943" stroke="currentColor" stroke-width="1.6" stroke-linecap="round" stroke-linejoin="round"/>
</svg>