<svg width="31" height="31" viewBox="0 0 31 31" fill="none" xmlns="http://www.w3.org/2000/svg">
    <path d="M27.4348 3H17.2609C16.0122 3 15 4.01223 15 5.26087V26.7391C15 27.9878 16.0122 29 17.2609 29H27.4348C28.6834 29 29.6957 27.9878 29.6957 26.7391V5.26087C29.6957 4.01223 28.6834 3 27.4348 3Z" stroke="currentColor" stroke-width="1.6" stroke-linecap="round" stroke-linejoin="round"/>
    <path d="M26.0509 3V4.48123C26.0509 4.87408 25.8949 5.25083 25.6171 5.52862C25.3393 5.8064 24.9625 5.96246 24.5697 5.96246H20.126C19.7332 5.96246 19.3564 5.8064 19.0786 5.52862C18.8008 5.25083 18.6448 4.87408 18.6448 4.48123V3" stroke="currentColor" stroke-width="1.6" stroke-linecap="round" stroke-linejoin="round"/>
</svg>